# Simple Cabin/House
# Size: 4x3x5 units (width x height x depth)
# Centered at origin, door facing -Z
# Rectangular base with triangular prism roof

# Base/walls vertices (4 wide, 2 tall, 5 deep)
v -2.0 0.0 -2.5
v 2.0 0.0 -2.5
v 2.0 0.0 2.5
v -2.0 0.0 2.5
v -2.0 2.0 -2.5
v 2.0 2.0 -2.5
v 2.0 2.0 2.5
v -2.0 2.0 2.5

# Roof peak vertices
v 0.0 3.0 -2.5
v 0.0 3.0 2.5

# Door opening vertices (on front face, -Z side)
v -0.4 0.0 -2.5
v 0.4 0.0 -2.5
v 0.4 1.4 -2.5
v -0.4 1.4 -2.5

# Normals
vn 0.0 -1.0 0.0
vn 0.0 1.0 0.0
vn 0.0 0.0 -1.0
vn 0.0 0.0 1.0
vn 1.0 0.0 0.0
vn -1.0 0.0 0.0
vn 0.707 0.707 0.0
vn -0.707 0.707 0.0

# Floor
f 1//1 3//1 2//1
f 1//1 4//1 3//1

# Front wall (with door opening) - Z negative
f 1//3 5//3 14//3
f 1//3 14//3 11//3
f 12//3 13//3 6//3
f 12//3 6//3 2//3
f 14//3 5//3 6//3
f 14//3 6//3 13//3

# Back wall - Z positive
f 3//4 7//4 8//4
f 3//4 8//4 4//4

# Right wall
f 2//5 6//5 7//5
f 2//5 7//5 3//5

# Left wall
f 4//6 8//6 5//6
f 4//6 5//6 1//6

# Roof - right side
f 6//7 9//7 10//7
f 6//7 10//7 7//7

# Roof - left side
f 8//8 10//8 9//8
f 8//8 9//8 5//8

# Roof front gable
f 5//3 9//3 6//3

# Roof back gable
f 7//4 10//4 8//4
